<svg id="Layer_1" data-name="Layer 1" xmlns="http://www.w3.org/2000/svg" viewBox="0 0 1753 1751"><defs><style>.cls-1{fill:#0254ec;}.cls-2{fill:#fff;}</style></defs><rect class="cls-1" y="-0.11" width="1753" height="1753"/><path class="cls-2" d="M1525.26,457.47a2.35,2.35,0,0,0-4.62,0c-3.47,18.31-11.41,49.14-27.28,65s-46.71,23.81-65,27.28a2.35,2.35,0,0,0,0,4.62c18.31,3.48,49.15,11.41,65,27.29,18.24,18.24,25.23,44.26,27.92,61.54a2.36,2.36,0,0,0,4.64.11c3.77-18.53,11.68-46.72,26.62-61.65,15.87-15.88,46.71-23.81,65-27.29a2.35,2.35,0,0,0,0-4.62c-18.31-3.47-49.15-11.41-65-27.28S1528.73,475.78,1525.26,457.47Z"/><path class="cls-2" d="M880.83,638.34H988.49a7.23,7.23,0,0,1,7.23,7.23v484.18a7.23,7.23,0,0,1-7.23,7.23H880.83a7.23,7.23,0,0,1-7.23-7.23V645.57A7.23,7.23,0,0,1,880.83,638.34Z"/><path class="cls-2" d="M1225.49,767.06a6.44,6.44,0,0,0-5.85-9.31h-172a7.29,7.29,0,0,1-7.35-7.23V645.57a7.29,7.29,0,0,1,7.35-7.23h387.14a6.43,6.43,0,0,1,5.73,9.5l-205,370.36a6.44,6.44,0,0,0,5.74,9.51h197.21a7.29,7.29,0,0,1,7.35,7.23v94.81a7.29,7.29,0,0,1-7.35,7.23h-390.9a6.43,6.43,0,0,1-5.84-9.31Z"/><path class="cls-2" d="M828.37,638.3H715.21a7.25,7.25,0,0,0-6.76,4.67l-79.68,208.6a2.57,2.57,0,0,1-4.74.15L528.9,644.46A12.68,12.68,0,0,0,518.12,637H518s0,0-.08,0a12.69,12.69,0,0,0-11.12,7.49L411.71,851.72a2.58,2.58,0,0,1-4.75-.15L327.28,643a7.24,7.24,0,0,0-6.75-4.67H207.37a7.27,7.27,0,0,0-6.75,9.91l187.13,487a2.58,2.58,0,0,0,4.71.23l114-228.15a12.78,12.78,0,0,1,22.91,0l114,228.15a2.58,2.58,0,0,0,4.71-.23l187.13-487A7.28,7.28,0,0,0,828.37,638.3Z"/></svg>