<?xml version="1.0" encoding="UTF-8"?>
<svg version="1.1" xmlns="http://www.w3.org/2000/svg" width="2229" height="979">
<path d="M0 0 C735.57 0 1471.14 0 2229 0 C2229 323.07 2229 646.14 2229 979 C1493.43 979 757.86 979 0 979 C0 655.93 0 332.86 0 0 Z " fill="#FEFEFE" transform="translate(0,0)"/>
<path d="M0 0 C0.88300781 0.6909375 1.76601563 1.381875 2.67578125 2.09375 C14.65735583 11.60800774 26.21122395 22.22457199 36 34 C36.82242188 34.98484375 37.64484375 35.9696875 38.4921875 36.984375 C76.88040087 83.91662924 98.19121442 143.63502296 92.4609375 204.46484375 C91.22460607 215.52279292 89.20475579 226.34121962 86 237 C85.79004395 237.70398926 85.58008789 238.40797852 85.36376953 239.13330078 C80.1568498 256.28172561 73.38167958 272.33986373 63 287 C62.29875 288.01835937 61.5975 289.03671875 60.875 290.0859375 C40.22805167 318.54718225 11.82247532 337.79824647 -22 347 C-22.68884277 347.19062012 -23.37768555 347.38124023 -24.08740234 347.57763672 C-34.029283 350.18163992 -44.02431589 350.27380848 -54.25 350.3125 C-55.50546631 350.31822021 -56.76093262 350.32394043 -58.05444336 350.32983398 C-83.71380637 350.1289614 -109.15107336 342.64173921 -129 326 C-130.09248047 325.14341797 -130.09248047 325.14341797 -131.20703125 324.26953125 C-141.20570226 316.05696259 -148.37677521 305.00975635 -153 293 C-153.36738281 292.08476562 -153.73476563 291.16953125 -154.11328125 290.2265625 C-157.72292286 280.85462029 -159.37745862 271.85096049 -159.3125 261.8125 C-159.30758545 260.90121338 -159.3026709 259.98992676 -159.29760742 259.05102539 C-158.94140315 238.26878977 -151.50959561 220.83441409 -137.3125 205.75 C-120.24386109 189.47525128 -99.45576784 183.53215444 -76.3046875 183.8515625 C-59.81919314 184.28483056 -45.10852243 191.39875526 -33.6875 203.1875 C-27.33372868 210.69174844 -22.80720919 220.34789813 -22.9375 230.25 C-22.94652344 231.14203125 -22.95554687 232.0340625 -22.96484375 232.953125 C-22.98224609 233.96632813 -22.98224609 233.96632813 -23 235 C-23.33 235 -23.66 235 -24 235 C-24.07476563 234.26136719 -24.14953125 233.52273438 -24.2265625 232.76171875 C-25.60457036 222.12944241 -29.87602762 212.26605289 -38 205 C-52.48832174 194.0641033 -68.45191819 191.11110933 -86.20654297 193.26806641 C-101.31777708 195.78719928 -114.36993574 203.04902814 -125 214 C-125.55945313 214.53882813 -126.11890625 215.07765625 -126.6953125 215.6328125 C-138.7353687 228.17716425 -140.53028728 244.20033375 -140.2421875 260.67578125 C-139.65609732 277.33292851 -131.72584874 292.68151665 -119.76171875 304.14453125 C-99.24888913 321.70297625 -73.22798803 323.55568511 -47.46289062 321.83007812 C-20.99338616 319.31447341 4.98347382 304.68540699 21.9375 284.375 C23.30827902 282.59601105 24.66372441 280.80504968 26 279 C26.5775 278.26007813 27.155 277.52015625 27.75 276.7578125 C36.14759735 265.52213826 42.44259767 252.61996247 46.9375 239.375 C47.20755859 238.59020264 47.47761719 237.80540527 47.75585938 236.99682617 C52.36806323 222.58368913 53.58606492 208.09733703 53.5 193.0625 C53.49790527 192.2154953 53.49581055 191.3684906 53.49365234 190.49581909 C53.22816672 138.10727043 29.48680742 91.20241387 -6.5625 54.1875 C-11.433039 49.44836043 -16.65579856 45.19067162 -22 41 C-22.90234375 40.28070313 -23.8046875 39.56140625 -24.734375 38.8203125 C-52.54757919 17.23050482 -85.57603714 3.42051859 -120 -3.3125 C-120.81138428 -3.47202148 -121.62276855 -3.63154297 -122.45874023 -3.79589844 C-135.19716053 -6.1281221 -148.09145202 -6.23900216 -161 -6.25 C-161.82715515 -6.25100708 -162.6543103 -6.25201416 -163.50653076 -6.25305176 C-185.0744937 -6.23544314 -206.3921799 -4.44084575 -227.44775391 0.41552734 C-230.21385238 1.04897289 -232.98720082 1.64285769 -235.76171875 2.23828125 C-259.38650781 7.4558869 -282.28397861 15.32623391 -304 26 C-304.93666504 26.45149414 -305.87333008 26.90298828 -306.83837891 27.36816406 C-329.42371688 38.32376594 -350.74147914 51.86242521 -370 68 C-371.03977499 68.84968035 -372.08015001 69.69862689 -373.12109375 70.546875 C-385.90270552 81.0616038 -398.28319648 92.37307202 -409 105 C-410.23169922 106.39992187 -410.23169922 106.39992187 -411.48828125 107.828125 C-430.82524775 129.96554424 -445.98074589 154.72460579 -459 181 C-459.39638672 181.78536133 -459.79277344 182.57072266 -460.20117188 183.37988281 C-477.50264788 217.96784222 -488.18249031 258.85477372 -492.0625 297.25 C-492.17948242 298.32701172 -492.17948242 298.32701172 -492.29882812 299.42578125 C-494.00462003 315.86341231 -494.20179273 332.23828659 -494.1875 348.75 C-494.18722809 349.9274176 -494.18695618 351.10483521 -494.18667603 352.31793213 C-494.16827418 369.63009616 -493.90803322 386.77764461 -492 404 C-491.84724609 405.42723389 -491.84724609 405.42723389 -491.69140625 406.88330078 C-490.94953348 413.61396436 -490.01939419 420.3062309 -489 427 C-488.84192871 428.06138184 -488.68385742 429.12276367 -488.52099609 430.21630859 C-483.3808657 464.10765734 -474.60297202 496.78020774 -463 529 C-462.75872375 529.67313232 -462.51744751 530.34626465 -462.26885986 531.03979492 C-451.70770281 560.43532978 -438.64571009 588.95466062 -423 616 C-422.52143555 616.83063965 -422.04287109 617.6612793 -421.54980469 618.51708984 C-399.68075425 656.25177895 -373.25308649 691.45344616 -343.53076172 723.3515625 C-341.8471364 725.16461483 -340.17571239 726.98854633 -338.50390625 728.8125 C-330.58967833 737.40273923 -322.38879787 745.54215562 -313.75048828 753.40234375 C-312.08274241 754.92448168 -310.42790699 756.45926997 -308.77734375 758 C-303.36729498 763.03741786 -297.84355758 767.87551236 -292.08203125 772.5078125 C-289.76835882 774.37869084 -287.47813421 776.26731879 -285.19921875 778.1796875 C-257.92584509 801.02186622 -227.94582981 821.44507045 -197 839 C-196.25766113 839.42345703 -195.51532227 839.84691406 -194.75048828 840.28320312 C-190.2640502 842.83369269 -185.75282962 845.33426575 -181.21679688 847.79541016 C-179.75463729 848.58993608 -178.29493196 849.38899757 -176.83789062 850.19287109 C-152.92790119 863.37139323 -127.69623039 873.85976869 -102 883 C-101.35524719 883.22945312 -100.71049438 883.45890625 -100.04620361 883.6953125 C-59.69253093 898.00221889 -18.36814639 907.83071348 24 914 C25.06750488 914.15597656 26.13500977 914.31195312 27.23486328 914.47265625 C46.07266396 917.1504163 65.0118548 918.08310387 84 919 C84 919.33 84 919.66 84 920 C80.73646757 920.72652511 77.7191953 921.1248685 74.37790126 921.1241985 C73.47221246 921.12644579 72.56652366 921.12869308 71.63338974 921.13100848 C70.15142501 921.12706796 70.15142501 921.12706796 68.6395216 921.12304783 C67.05055 921.1247786 67.05055 921.1247786 65.42947796 921.12654433 C61.85606116 921.1292053 58.28268882 921.12469304 54.70927429 921.12025452 C52.13108348 921.12069032 49.55289271 921.12156541 46.97470218 921.12284368 C41.35703603 921.12491837 35.73938047 921.12327202 30.12171555 921.11920547 C21.76842747 921.11317542 13.41514608 921.11286921 5.06185622 921.11374746 C-8.98906659 921.11506206 -23.0399847 921.11171731 -37.09090614 921.10573006 C-51.00592383 921.0998159 -64.92093955 921.09596469 -78.83595848 921.09487724 C-79.70069517 921.0948085 -80.56543187 921.09473976 -81.4563727 921.09466894 C-85.84781593 921.09433061 -90.23925916 921.09402923 -94.6307024 921.09374207 C-125.74672285 921.09164086 -156.86274075 921.0849013 -187.97875977 921.07543945 C-218.21020494 921.06625719 -248.44164941 921.05917251 -278.6730957 921.05493164 C-280.07054559 921.05473435 -280.07054559 921.05473435 -281.49622679 921.05453308 C-290.85195024 921.05321457 -300.20767369 921.05193876 -309.56339715 921.05069422 C-328.62260233 921.04815791 -347.68180746 921.04533666 -366.74101257 921.04234314 C-367.61735121 921.04220585 -368.49368985 921.04206856 -369.3965842 921.04192711 C-427.93105721 921.03272425 -486.46552876 921.01685802 -545 921 C-545.03426217 863.86470315 -545.06610006 806.72940529 -545.08468628 749.59410095 C-545.08496239 748.74748064 -545.08523851 747.90086033 -545.08552299 747.02858486 C-545.09150984 728.62596478 -545.09705005 710.2233446 -545.10213066 691.82072425 C-545.10462517 682.79511497 -545.1072183 673.76950572 -545.10986328 664.74389648 C-545.1101248 663.84577532 -545.11038632 662.94765415 -545.11065576 662.02231719 C-545.11916718 632.95046642 -545.13418134 603.87862347 -545.15259444 574.80677743 C-545.17149346 544.91318754 -545.18377872 515.01960198 -545.18782998 485.12600622 C-545.18840623 480.89656453 -545.1890575 476.66712286 -545.18975449 472.4376812 C-545.18988933 471.60532703 -545.19002418 470.77297287 -545.19016311 469.91539585 C-545.19251973 456.55676514 -545.20177737 443.19814785 -545.21366407 429.8395226 C-545.22548671 416.38539578 -545.22992397 402.93128215 -545.22700275 389.47715033 C-545.22549016 381.49951455 -545.22945973 373.52192736 -545.24159509 365.54430042 C-545.25006819 359.56130352 -545.24787431 353.57835756 -545.24179779 347.5953558 C-545.24096059 345.19384887 -545.24342852 342.7923377 -545.24976636 340.39083899 C-545.30547763 317.95427379 -543.80946584 295.84515339 -540.25 273.6875 C-540.11961334 272.86203674 -539.98922668 272.03657349 -539.85488892 271.18609619 C-528.56857177 199.94936269 -500.96437097 130.63699213 -453 76 C-452.36707031 75.2678125 -451.73414063 74.535625 -451.08203125 73.78125 C-449.40090603 71.84237789 -447.70296202 69.91970264 -446 68 C-445.3503125 67.2575 -444.700625 66.515 -444.03125 65.75 C-435.3062858 55.88699699 -426.05648718 46.50656263 -416 38 C-415.03320312 37.1440625 -414.06640625 36.288125 -413.0703125 35.40625 C-399.02023533 23.02076531 -383.78590823 12.0635165 -368 2 C-366.906875 1.30003906 -365.81375 0.60007813 -364.6875 -0.12109375 C-282.68144851 -51.44734557 -176.4793039 -71.53342274 0 0 Z " fill="#798178" transform="translate(545,58)"/>
<path d="M0 0 C0.33 0 0.66 0 1 0 C1.07516846 1.00973877 1.15033691 2.01947754 1.2277832 3.05981445 C7.10343768 81.54206352 24.07645193 153.71266291 58 225 C58.40541016 225.85609863 58.81082031 226.71219727 59.22851562 227.59423828 C66.02897949 241.86018683 73.8860051 255.44690192 82 269 C82.50208984 269.84401367 83.00417969 270.68802734 83.52148438 271.55761719 C101.57303126 301.86106662 122.96489216 330.42607271 146.734375 356.48828125 C148.61351217 358.57153159 150.46075189 360.67539884 152.30078125 362.79296875 C155.9266772 366.94495418 159.66001761 370.98596865 163.4375 375 C164.09564697 375.69988037 164.75379395 376.39976074 165.43188477 377.12084961 C171.59946583 383.66213102 177.78838548 390.03504313 184.61328125 395.89453125 C187.11982213 398.10570233 189.55701317 400.3792115 191.99316406 402.66723633 C198.45481489 408.73262113 205.07435893 414.46497642 212 420 C213.22660251 421.00487442 214.4517693 422.01150295 215.67578125 423.01953125 C282.07008895 477.60985961 361.6611078 520.29410613 445.59716797 540.42089844 C447.80058317 540.95193896 449.99668314 541.50458045 452.19140625 542.0703125 C455.43378837 542.90135696 458.68073241 543.70682165 461.93408203 544.49365234 C463.34846008 544.84031035 464.76083571 545.1952133 466.17138672 545.55712891 C479.40253594 548.94590313 492.75456933 551.17029285 506.25 553.1875 C507.09232178 553.31396912 507.93464355 553.44043823 508.80249023 553.57073975 C525.48478998 556.0589568 542.15563765 558.05592069 559 559 C559 559.33 559 559.66 559 560 C374.53 560 190.06 560 0 560 C0 375.2 0 190.4 0 0 Z " fill="#FEFEFE" transform="translate(0,419)"/>
<path d="M0 0 C2.19847175 -0.00965724 4.39598637 -0.04075653 6.59423828 -0.07226562 C33.3369341 -0.27385925 57.31304752 8.54137261 76.78564453 27.11523438 C88.63558397 39.41637391 95.53730069 54.85613671 99.59814453 71.24023438 C99.93845703 72.39136719 100.27876953 73.5425 100.62939453 74.72851562 C109.46709091 106.76516498 104.75960762 147.12463106 88.71606445 176.18969727 C78.56121861 193.57760136 63.2312558 205.63599768 44.72314453 213.05273438 C44.04123047 213.33068848 43.35931641 213.60864258 42.65673828 213.89501953 C30.05658808 218.67830206 17.43226992 219.73518784 4.11010742 219.63134766 C1.66609729 219.61527024 -0.77625445 219.63129145 -3.22021484 219.65039062 C-29.40054267 219.68711264 -54.51377732 212.13781389 -73.43310547 193.36132812 C-96.83890167 169.16985143 -101.94165889 136.1948195 -101.75537109 103.81884766 C-101.20710374 74.42780134 -93.25225053 46.92889055 -72.77685547 25.11523438 C-52.86770027 5.93669037 -26.79754542 0.07078374 0 0 Z " fill="#788177" transform="translate(1621.40185546875,42.759765625)"/>
<path d="M0 0 C111.3078125 0 111.3078125 0 132.875 20.0625 C144.89082429 32.90156589 148.54919443 49.10299801 148.49243164 66.21972656 C147.95927319 81.70623545 141.14246509 95.28195417 130.70703125 106.53515625 C124.65930211 112.04181871 117.38111913 116.50080278 110 120 C110.64208991 123.57123803 112.12254072 125.97987188 114.140625 128.97265625 C114.79216553 129.94452881 115.44370605 130.91640137 116.11499023 131.91772461 C116.81954346 132.95550049 117.52409668 133.99327637 118.25 135.0625 C118.97582275 136.14088135 119.70164551 137.2192627 120.44946289 138.33032227 C125.79178125 146.25504432 131.17780742 154.15010005 136.58984375 162.02734375 C141.30837799 168.89843771 145.98653679 175.79703657 150.66772461 182.69360352 C154.07505208 187.71053929 157.49098751 192.72081998 160.9375 197.7109375 C161.54142578 198.58685547 162.14535156 199.46277344 162.76757812 200.36523438 C163.89342686 201.99625538 165.02217517 203.62528003 166.15429688 205.25195312 C166.64994141 205.97060547 167.14558594 206.68925781 167.65625 207.4296875 C168.08744141 208.05085449 168.51863281 208.67202148 168.96289062 209.31201172 C170 211 170 211 171 214 C164.00819831 214.25416769 157.01759153 214.42891409 150.0222168 214.54931641 C147.64448539 214.5995171 145.26706135 214.66769616 142.89038086 214.75439453 C139.4665146 214.87613836 136.04673385 214.93249384 132.62109375 214.9765625 C131.56353378 215.02817535 130.50597382 215.07978821 129.41636658 215.13296509 C124.90715559 215.13636921 122.13807965 215.11430403 118.82267761 211.86816406 C117.01340581 209.314987 115.48068878 206.75457058 114 204 C113.06702467 202.47038909 112.12918462 200.94371942 111.18359375 199.421875 C110.26541639 197.86624009 109.35014434 196.30888741 108.4375 194.75 C102.41487084 184.59017842 96.09396529 174.6364605 89.72265625 164.69287109 C86.96823332 160.38713344 84.23210406 156.06992339 81.5 151.75 C81.03207031 151.01257568 80.56414062 150.27515137 80.08203125 149.51538086 C76.63114911 144.05787008 73.32472408 138.5412068 70 133 C61.75 132.67 53.5 132.34 45 132 C45 158.73 45 185.46 45 213 C30.15 213 15.3 213 0 213 C0 142.71 0 72.42 0 0 Z " fill="#788177" transform="translate(995,46)"/>
<path d="M0 0 C18.48 0 36.96 0 56 0 C58.6915648 6.05602079 61.16288792 11.96919021 63.3359375 18.19921875 C63.6475029 19.08250854 63.9590683 19.96579834 64.28007507 20.87585449 C64.95778839 22.79853547 65.63383121 24.72180591 66.30838013 26.64559937 C67.40341987 29.76855084 68.50278048 32.88995189 69.60327148 36.01098633 C70.79507057 39.39115448 71.98657741 42.77142301 73.17680359 46.15214539 C77.64623094 58.84614564 82.14769495 71.5287374 86.65063477 84.21087646 C88.06764834 88.20179303 89.48405885 92.19292347 90.90039062 96.18408203 C96.06522332 110.73777099 101.23346608 125.29024547 106.40740967 139.84069824 C107.36275802 142.52806369 108.31743864 145.21566553 109.27197266 147.90332031 C112.28829282 156.39352915 115.31325394 164.8804895 118.35766602 173.360672 C119.85872247 177.5433882 121.3560665 181.72742894 122.85308838 185.91159058 C123.56830712 187.90731535 124.28534881 189.90238789 125.0043335 191.89675903 C125.99572868 194.64701039 126.98092232 197.39941143 127.96484375 200.15234375 C128.25879532 200.96263031 128.55274689 201.77291687 128.85560608 202.60775757 C129.12489426 203.36489044 129.39418243 204.12202332 129.67163086 204.90209961 C129.90538925 205.55246689 130.13914764 206.20283417 130.37998962 206.87290955 C131.15299178 209.52487406 131.54587631 212.27525785 132 215 C115.83 215 99.66 215 83 215 C80.69 207.41 78.38 199.82 76 192 C74.09650942 186.36202256 74.09650942 186.36202256 72.140625 180.7421875 C70.46449054 175.24308882 69.29268821 169.60164889 68 164 C41.93 164 15.86 164 -11 164 C-11.99 168.29 -12.98 172.58 -14 177 C-15.07877385 180.44594112 -16.18133288 183.84643565 -17.375 187.25 C-20.56721631 196.42762189 -23.25038428 205.65130654 -26 215 C-42.17 215 -58.34 215 -75 215 C-72.74984658 204.87430961 -72.74984658 204.87430961 -71.23852539 200.58691406 C-70.8988121 199.61531342 -70.55909882 198.64371277 -70.20909119 197.64266968 C-69.84231766 196.61074493 -69.47554413 195.57882019 -69.09765625 194.515625 C-68.51408104 192.8547435 -68.51408104 192.8547435 -67.91871643 191.16030884 C-66.6385003 187.52168694 -65.35063364 183.88582575 -64.0625 180.25 C-63.3846176 178.32891117 -62.70755556 176.40753458 -62.0305748 174.48612785 C-55.58216826 156.18659338 -49.04210372 137.92022175 -42.46923828 119.66503906 C-35.47087364 100.22220295 -28.64274623 80.72265025 -21.85150146 61.20682144 C-14.73002384 40.7427668 -7.48624604 20.3342629 0 0 Z " fill="#798278" transform="translate(769,45)"/>
<path d="M0 0 C1.33369629 0.32556885 1.33369629 0.32556885 2.69433594 0.65771484 C8.7323533 2.17852029 14.67128254 3.92176646 20.5625 5.9375 C21.28332764 6.17879639 22.00415527 6.42009277 22.74682617 6.66870117 C24.734375 7.3828125 24.734375 7.3828125 27.8125 8.8125 C29.21151289 13.00953866 27.50508692 15.66691109 25.84765625 19.54296875 C25.53549667 20.29338943 25.2233371 21.04381012 24.90171814 21.81697083 C23.90171078 24.21515035 22.8885591 26.60752074 21.875 29 C21.19509117 30.623984 20.51604374 32.24832893 19.83789062 33.87304688 C18.17273043 37.85712298 16.49576 41.83603911 14.8125 45.8125 C10.53577077 44.39426247 6.26035675 42.97426575 2.00390625 41.49609375 C0.20759766 40.87927734 0.20759766 40.87927734 -1.625 40.25 C-2.81996094 39.83621094 -4.01492188 39.42242187 -5.24609375 38.99609375 C-14.5195843 36.08478694 -23.36713057 35.47390912 -33.0625 35.5 C-34.25230469 35.48388672 -35.44210937 35.46777344 -36.66796875 35.45117188 C-53.9481939 35.44172913 -68.19231654 40.80898248 -80.48828125 52.9453125 C-97.25600932 70.75647372 -99.99818414 93.74468838 -99.32373047 117.22070312 C-98.40696226 134.66230051 -92.8074485 153.75352984 -80.0625 166.125 C-66.60750389 177.28783323 -50.90486413 178.75718913 -34.1875 177.8125 C-30.4667623 177.4495012 -26.78983065 176.88386871 -23.10546875 176.25 C-20.1875 175.8125 -20.1875 175.8125 -15.1875 175.8125 C-15.1875 160.9625 -15.1875 146.1125 -15.1875 130.8125 C-28.3875 130.8125 -41.5875 130.8125 -55.1875 130.8125 C-55.1875 118.6025 -55.1875 106.3925 -55.1875 93.8125 C-27.1375 93.8125 0.9125 93.8125 29.8125 93.8125 C29.8125 130.1125 29.8125 166.4125 29.8125 203.8125 C20.75570591 207.20879778 12.25483842 210.1318485 2.75 211.875 C1.50959961 212.11573242 1.50959961 212.11573242 0.24414062 212.36132812 C-13.5240682 214.94481268 -26.93127296 216.14573685 -40.91577148 216.07324219 C-43.38354786 216.06246266 -45.85060397 216.07324354 -48.31835938 216.0859375 C-57.45621398 216.09421713 -66.19061335 215.59142056 -75.1875 213.8125 C-75.89092529 213.68246582 -76.59435059 213.55243164 -77.3190918 213.41845703 C-97.77934664 209.37631581 -116.47108661 197.06166416 -128.1875 179.8125 C-146.34666677 152.46817329 -151.658839 115.40517142 -145.875 83.375 C-145.36129924 80.8390012 -144.78302334 78.33181073 -144.1875 75.8125 C-143.95933594 74.73226562 -143.73117187 73.65203125 -143.49609375 72.5390625 C-138.24940385 49.21377826 -124.35445838 27.70452011 -104.25927734 14.55029297 C-74.00845449 -4.25387288 -34.44369669 -8.5410249 0 0 Z " fill="#788177" transform="translate(1388.1875,46.1875)"/>
<path d="M0 0 C-0.28198242 0.66942627 -0.56396484 1.33885254 -0.85449219 2.02856445 C-2.15572961 5.12206726 -3.45288107 8.21726816 -4.75 11.3125 C-5.1934375 12.36501953 -5.636875 13.41753906 -6.09375 14.50195312 C-8.92603296 21.27027636 -11.56247473 28.07960028 -14 35 C-17.52016085 34.37239886 -20.74432684 33.45799431 -24.09765625 32.22265625 C-25.06509766 31.87396484 -26.03253906 31.52527344 -27.02929688 31.16601562 C-29.0260368 30.43957773 -31.02089345 29.70793882 -33.01367188 28.97070312 C-43.30432615 25.28236961 -53.33196517 23.64444781 -64.25 23.6875 C-65.49910156 23.66333008 -65.49910156 23.66333008 -66.7734375 23.63867188 C-73.73909515 23.6332129 -79.65951662 24.99100088 -85.3125 29.3125 C-89.7551309 33.7551309 -91.17082076 37.21854066 -91.375 43.4375 C-91.12559532 50.27303578 -89.46881445 54.84675224 -84.625 59.75 C-74.77286123 68.01875932 -62.04887384 73.15674531 -50.45654297 78.51782227 C-31.39543299 87.33305108 -11.34124163 98.8928087 -2.5625 119 C2.74667888 134.20025186 3.18827423 152.3458692 -3.59521484 167.08300781 C-12.33724113 184.94841003 -26.04418846 193.91233772 -44.4375 200.75 C-55.37433914 204.03210666 -66.75097341 204.34908807 -78.07592773 204.31567383 C-80.30046876 204.31251707 -82.52366894 204.33607618 -84.74804688 204.36132812 C-98.43476762 204.42296686 -111.74736203 202.64828155 -124.6875 198 C-125.78481445 197.62875 -125.78481445 197.62875 -126.90429688 197.25 C-131.19242723 195.76787394 -134.87402001 194.06299 -139 192 C-139 178.14 -139 164.28 -139 150 C-128.94296375 153.35234542 -128.94296375 153.35234542 -125.08984375 154.90234375 C-105.13203927 162.79902654 -79.99430542 171.64365551 -58.5625 164.3125 C-53.04413664 161.81130837 -49.30263305 159.17105508 -46.125 153.875 C-43.88820489 147.74055593 -44.09044892 141.33319626 -46.4375 135.3125 C-52.47296279 126.50035949 -61.74010809 121.61773721 -71.0625 117 C-72.27026033 116.38848458 -73.47736815 115.77567882 -74.68383789 115.16162109 C-79.73425882 112.59879717 -84.80918226 110.08630372 -89.8984375 107.6015625 C-108.7973992 98.37009577 -126.22577452 86.58206959 -134.29296875 66.28515625 C-139.2292722 50.33080531 -138.32042862 32.8538047 -131.4921875 17.640625 C-125.41728717 6.50801696 -116.95829201 -0.84401831 -106 -7 C-105.3296875 -7.38929687 -104.659375 -7.77859375 -103.96875 -8.1796875 C-72.73958988 -24.16604328 -29.87624014 -14.32640641 0 0 Z " fill="#788177" transform="translate(1957,58)"/>
<path d="M0 0 C16.5 0 33 0 50 0 C55.375 10.8125 55.375 10.8125 56.99755859 14.08520508 C60.15536433 20.41787684 63.40797133 26.69161945 66.71875 32.9453125 C71.85292107 42.65396852 76.8154435 52.44471719 81.7265625 62.26782227 C83.15452193 65.12149747 84.58892242 67.97188125 86.0234375 70.82226562 C86.93528446 72.64303459 87.8467579 74.46399068 88.7578125 76.28515625 C89.18579132 77.13392838 89.61377014 77.9827005 90.05471802 78.85719299 C90.44287689 79.63658737 90.83103577 80.41598175 91.23095703 81.21899414 C91.74530807 82.2455587 91.74530807 82.2455587 92.27005005 83.29286194 C93 85 93 85 93 87 C93.66 87 94.32 87 95 87 C95.23992676 86.18966309 95.47985352 85.37932617 95.72705078 84.54443359 C97.26885466 80.25139396 99.26436684 76.32998535 101.3671875 72.2890625 C101.7982077 71.45200272 102.22922791 70.61494293 102.67330933 69.7525177 C104.07009305 67.04137655 105.47253723 64.33320705 106.875 61.625 C108.79632483 57.90079653 110.71473343 54.17509471 112.6328125 50.44921875 C113.10283691 49.53707108 113.57286133 48.6249234 114.05712891 47.68513489 C118.12357619 39.78422096 122.11155834 31.84656156 126.00732422 23.85986328 C130.03341014 15.69394209 134.50846605 7.98494924 139 0 C155.17 0 171.34 0 188 0 C183.35845985 9.2830803 178.80067349 18.3620872 173.625 27.3125 C169.62093735 34.31267419 165.71105541 41.34007917 162 48.5 C158.46152507 55.31913747 154.75101609 62.01850031 150.9375 68.6875 C144.78161849 79.46400323 138.9483022 90.39871912 133.17553711 101.38354492 C132.85789587 101.98549871 132.54025463 102.58745251 132.2129879 103.20764732 C131.53775723 104.49118814 130.86652309 105.77684716 130.20103073 107.06546402 C128.49316717 110.33587482 126.7236857 113.48487713 124.66548157 116.54859924 C117.58208244 127.36907694 116.7197334 136.44261557 116.90234375 149.15625 C116.89667551 151.03911891 116.88704459 152.92197961 116.87367249 154.80480957 C116.8492994 159.70431788 116.87789606 164.60206041 116.91845703 169.50140381 C116.95597807 175.40964405 116.92606989 181.31790056 116.90778351 187.22618103 C116.88754769 196.15183707 116.95165332 205.07326889 117 214 C101.82 214 86.64 214 71 214 C71.10183594 208.26109375 71.20367188 202.5221875 71.30859375 196.609375 C71.33974305 192.90850194 71.36630749 189.20866466 71.37695312 185.5078125 C71.39416227 179.67065494 71.42561718 173.83679079 71.55883789 168.00097656 C72.09362629 143.58710302 70.92441632 125.44570811 56.91217041 104.89764404 C53.73478839 100.08273737 51.11673283 94.97788003 48.4375 89.875 C47.37768221 87.9152138 46.31550427 85.95670037 45.25 84 C41.79768525 77.63295723 38.36745564 71.2541071 34.9375 64.875 C30.64994215 56.90288652 26.34211837 48.94252773 22 41 C17.43013773 32.6401366 12.89344608 24.2627304 8.375 15.875 C7.77042969 14.75351562 7.16585937 13.63203125 6.54296875 12.4765625 C5.97964844 11.42984375 5.41632813 10.383125 4.8359375 9.3046875 C4.08642822 7.9122583 4.08642822 7.9122583 3.32177734 6.49169922 C2.18268679 4.34438519 1.08705886 2.17411772 0 0 Z " fill="#798278" transform="translate(2041,46)"/>
<path d="M0 0 C14.30092441 11.02255365 19.9399818 26.42662897 22.47436523 43.79443359 C25.83623301 70.64768748 23.81042806 99.1868722 7.72265625 121.68359375 C1.29910292 129.13021954 -10.22249712 134.38753325 -19.8359375 135.66796875 C-23.89661528 135.92452573 -27.9554439 135.94446881 -32.0234375 135.98046875 C-33.09658203 136.00947266 -34.16972656 136.03847656 -35.27539062 136.06835938 C-47.52924681 136.16472969 -58.7381037 131.90429011 -67.9921875 123.7734375 C-86.02360113 105.08318376 -86.50336352 78.28826095 -86.15234375 53.93359375 C-85.59822149 35.98837898 -80.47406147 18.01530098 -67.9609375 4.66796875 C-50.43844797 -11.72403758 -19.84864464 -13.44264395 0 0 Z " fill="#FEFEFE" transform="translate(1653.8359375,88.33203125)"/>
<path d="M0 0 C4.95 0 9.9 0 15 0 C18.68384821 3.8407468 20.54382066 6.37978703 22.9375 10.9375 C23.93229283 12.6547605 24.92717713 14.37197572 25.92745972 16.08604431 C26.95707525 17.86513791 27.96260894 19.65637724 28.96630859 21.45019531 C32.14028394 27.06347018 35.72402121 32.41667759 39.25 37.8125 C44.14798954 45.43655493 48.9568971 53.10793558 53.625 60.875 C54.08551758 61.64046143 54.54603516 62.40592285 55.02050781 63.19458008 C58.51075794 69.05540912 61.7272533 74.99996439 65 81 C65 54.27 65 27.54 65 0 C69.29 0 73.58 0 78 0 C78 33.99 78 67.98 78 103 C64 103 64 103 60.4296875 99.51171875 C59.52603149 97.93233184 58.67660328 96.32105116 57.875 94.6875 C56.89461908 92.93021344 55.91280787 91.17372419 54.9296875 89.41796875 C54.44725586 88.51481934 53.96482422 87.61166992 53.46777344 86.68115234 C51.17539594 82.49371228 48.58532141 78.5105627 46 74.5 C44.99851746 72.91499827 43.99852002 71.32905723 43 69.7421875 C41.01222716 66.59358637 39.01135876 63.45389421 37 60.3203125 C28.4097443 46.89952133 20.13001247 33.26002493 13 19 C13 46.72 13 74.44 13 103 C8.71 103 4.42 103 0 103 C0 69.01 0 35.02 0 0 Z " fill="#7D857C" transform="translate(1196,291)"/>
<path d="M0 0 C4.62 0 9.24 0 14 0 C17.26328212 3.43207257 18.82397801 5.90284797 21 10 C22.28736708 12.09401851 23.61287206 14.16096609 24.94116211 16.22924805 C26.4962219 18.65406555 28.02676799 21.09315696 29.5546875 23.53515625 C31.99122712 27.41496467 34.45876256 31.27314867 36.9453125 35.12109375 C57.16583551 66.42485245 57.16583551 66.42485245 65 83 C64.9285376 81.85893799 64.8570752 80.71787598 64.78344727 79.54223633 C63.86840189 63.63617486 63.88018536 47.74238926 63.93133545 31.81719971 C63.94175926 28.21602992 63.9461729 24.61485255 63.95117188 21.01367188 C63.96174112 14.00909501 63.97925475 7.00455524 64 0 C68.29 0 72.58 0 77 0 C77 33.99 77 67.98 77 103 C63 103 63 103 60.15625 100.4921875 C59.6096875 99.29851562 59.063125 98.10484375 58.5 96.875 C57.80021212 95.48267506 57.09407197 94.09353108 56.3828125 92.70703125 C56.0105957 91.9485791 55.63837891 91.19012695 55.25488281 90.40869141 C52.92849859 85.94330098 50.11741566 81.78015135 47.375 77.5625 C46.16752216 75.67429419 44.96182873 73.78494624 43.7578125 71.89453125 C43.14325195 70.93111816 42.52869141 69.96770508 41.89550781 68.97509766 C21.41472172 36.82944345 21.41472172 36.82944345 13 20 C12.67 47.06 12.34 74.12 12 102 C8.04 102 4.08 102 0 102 C0 68.34 0 34.68 0 0 Z " fill="#7A8379" transform="translate(2149,291)"/>
<path d="M0 0 C1.48831242 0.00667405 2.97660807 0.01863442 4.46484375 0.03515625 C5.22345703 0.03966797 5.98207031 0.04417969 6.76367188 0.04882812 C8.64326246 0.06064945 10.52281274 0.07858547 12.40234375 0.09765625 C19.3240448 18.83160495 25.73647425 37.73281496 32.14208984 56.64794922 C32.87332327 58.80698278 33.60460512 60.96599995 34.3359375 63.125 C34.86737366 64.69399048 34.86737366 64.69399048 35.4095459 66.29467773 C38.57263405 75.62217864 41.78813614 84.93080045 45.06640625 94.21850586 C45.38480469 95.12737549 45.70320313 96.03624512 46.03125 96.97265625 C46.3001001 97.73320312 46.5689502 98.49375 46.84594727 99.27734375 C47.40234375 101.09765625 47.40234375 101.09765625 47.40234375 103.09765625 C42.45234375 103.09765625 37.50234375 103.09765625 32.40234375 103.09765625 C31.86609375 101.32390625 31.32984375 99.55015625 30.77734375 97.72265625 C28.75106593 91.11174266 26.57117168 84.55834549 24.33349609 78.01611328 C22.40234375 72.31207295 22.40234375 72.31207295 22.40234375 70.09765625 C10.19234375 70.09765625 -2.01765625 70.09765625 -14.59765625 70.09765625 C-15.58765625 73.72765625 -16.57765625 77.35765625 -17.59765625 81.09765625 C-18.18942353 83.06487468 -18.79362493 85.02850213 -19.421875 86.984375 C-19.72802734 87.94150391 -20.03417969 88.89863281 -20.34960938 89.88476562 C-20.65833984 90.84189453 -20.96707031 91.79902344 -21.28515625 92.78515625 C-21.60548828 93.78482422 -21.92582031 94.78449219 -22.25585938 95.81445312 C-23.03434572 98.24286576 -23.81569427 100.67036056 -24.59765625 103.09765625 C-29.21765625 103.09765625 -33.83765625 103.09765625 -38.59765625 103.09765625 C-37.7620563 98.08405658 -36.54984849 93.70549164 -34.8515625 88.96875 C-34.56861832 88.16582016 -34.28567413 87.36289032 -33.99415588 86.53562927 C-33.37745032 84.78628656 -32.75864888 83.03768162 -32.13800049 81.28973389 C-30.44568851 76.52250763 -28.76921609 71.74973096 -27.09375 66.9765625 C-26.7366394 65.95977417 -26.37952881 64.94298584 -26.01159668 63.89538574 C-23.16917778 55.78021881 -20.38979581 47.64455258 -17.6328125 39.5 C-17.22259354 38.28817551 -16.81237457 37.07635101 -16.38972473 35.82780457 C-14.76057281 31.01071105 -13.13338671 26.1929691 -11.51126099 21.37350464 C-10.37827418 18.00734467 -9.24202516 14.64229977 -8.10546875 11.27734375 C-7.76447647 10.25958359 -7.42348419 9.24182343 -7.07215881 8.19322205 C-6.6035569 6.8076284 -6.6035569 6.8076284 -6.12548828 5.39404297 C-5.8531839 4.58442108 -5.58087952 3.77479919 -5.30032349 2.94064331 C-4.05035077 -0.33784104 -3.86425069 0.1048928 0 0 Z " fill="#7B847A" transform="translate(1575.59765625,290.90234375)"/>
<path d="M0 0 C1.90942383 -0.0309375 1.90942383 -0.0309375 3.85742188 -0.0625 C19.31340814 -0.12536115 34.35260388 2.55143731 46.125 13.25 C56.6450696 24.59254777 60.1546683 38.80731624 59.6875 53.953125 C58.79468609 67.86826759 53.1232288 81.00168373 43 90.625 C23.06145679 107.17839156 -0.49551846 103.25 -25.6875 103.25 C-25.6875 69.92 -25.6875 36.59 -25.6875 2.25 C-18.50491919 -1.3412904 -7.80624539 0.03114711 0 0 Z M-11.6875 11.25 C-11.6875 38.31 -11.6875 65.37 -11.6875 93.25 C12.81988137 93.83032501 12.81988137 93.83032501 33.125 82.75 C36.9358408 78.39475337 39.83102255 74.59968033 42 69.1875 C42.41636719 68.16527344 42.83273437 67.14304687 43.26171875 66.08984375 C46.83466557 56.43358971 46.93068679 43.13512394 43.3515625 33.41796875 C37.55019363 21.31360889 29.81195831 15.67505506 17.3125 11.25 C14.21732017 10.32706921 11.44127939 10.12131526 8.21484375 10.1171875 C7.24869141 10.11589844 6.28253906 10.11460937 5.28710938 10.11328125 C3.78374023 10.11908203 3.78374023 10.11908203 2.25 10.125 C0.74083008 10.11919922 0.74083008 10.11919922 -0.79882812 10.11328125 C-1.76369141 10.11457031 -2.72855469 10.11585938 -3.72265625 10.1171875 C-5.04342163 10.11887939 -5.04342163 10.11887939 -6.39086914 10.12060547 C-8.85000665 10.15841227 -8.85000665 10.15841227 -11.6875 11.25 Z " fill="#7B847A" transform="translate(1397.6875,290.75)"/>
<path d="M0 0 C1.24112549 0.01135986 1.24112549 0.01135986 2.50732422 0.02294922 C13.3707073 0.31311952 22.18611066 3.67914213 30.6875 10.4375 C31.30238281 10.91574219 31.91726563 11.39398438 32.55078125 11.88671875 C40.79268357 19.14178576 46.16790145 31.4321131 46.87231445 42.28491211 C46.95568571 45.50515823 46.96037231 48.71631593 46.9375 51.9375 C46.94910156 53.57138672 46.94910156 53.57138672 46.9609375 55.23828125 C46.92696833 69.28453238 42.7859488 83.24100801 32.6875 93.4375 C19.69195089 104.29945149 6.20727617 106.78252612 -10.3125 105.4375 C-21.6598724 103.18700559 -31.67725674 95.78793232 -38.3125 86.4375 C-47.4491602 71.72424066 -48.56109667 53.44723786 -45.65625 36.640625 C-44.76057363 33.72195545 -43.70149375 31.15420837 -42.3125 28.4375 C-41.79171875 27.40496094 -41.2709375 26.37242187 -40.734375 25.30859375 C-34.05651396 13.05080828 -25.09519916 5.31520835 -11.71679688 1.03955078 C-7.80170389 0.05918733 -4.02031561 -0.05208305 0 0 Z M-16.3125 15.4375 C-16.91191406 15.83839844 -17.51132812 16.23929687 -18.12890625 16.65234375 C-25.5869729 22.20965044 -29.70893222 31.35690291 -31.84375 40.2265625 C-34.24638698 56.68462581 -31.86606749 71.35893435 -22.4375 85.1875 C-16.75443494 91.204863 -11.04479106 93.95148092 -2.69921875 94.80859375 C6.9948503 94.98261611 13.44486981 93.8928094 20.8984375 87.55859375 C31.47093502 76.88783882 32.98350153 63.06354316 33.00439453 48.81567383 C32.90913335 41.68578608 32.22764439 35.75057482 28.6875 29.4375 C28.24019531 28.633125 27.79289063 27.82875 27.33203125 27 C23.22353999 20.30304911 17.93232387 14.41954127 10.25390625 11.91015625 C1.34494876 10.26938934 -8.79816055 9.79732522 -16.3125 15.4375 Z " fill="#7A8379" transform="translate(882.3125,289.5625)"/>
<path d="M0 0 C10.50093126 7.61459934 17.46829389 18.64875118 20.25 31.3125 C20.55531122 35.37842345 20.57466698 39.42406323 20.5625 43.5 C20.57861328 44.56025391 20.59472656 45.62050781 20.61132812 46.71289062 C20.62017925 61.23758884 16.68085498 74.90529916 6.625 85.6875 C-4.58685411 96.19017056 -17.50824264 98.95652738 -32.328125 98.625 C-43.70671957 98.04593666 -53.30859759 92.21394891 -61 84.0625 C-70.13910518 73.19732128 -73.32919919 60.4128641 -73.1875 46.4375 C-73.17992676 45.3853833 -73.17235352 44.3332666 -73.16455078 43.24926758 C-72.99584066 35.28110101 -72.09617707 28.6283654 -68.75 21.3125 C-68.31429688 20.343125 -67.87859375 19.37375 -67.4296875 18.375 C-61.52434021 6.49976611 -51.96765523 -1.41108226 -39.453125 -5.859375 C-25.9028402 -8.88960746 -11.89170971 -7.23580303 0 0 Z M-50.21875 15.0703125 C-59.20393932 28.22719685 -60.56949368 42.90797294 -58.46142578 58.43847656 C-56.42347471 68.80603972 -51.032812 77.24281878 -42.5 83.375 C-35.0029646 88.32257771 -26.49221549 88.42672372 -17.75 87.3125 C-8.69603169 84.36126469 -2.79189779 78.49037137 1.5 70.1875 C2.09501823 68.90117428 2.67976087 67.61000063 3.25 66.3125 C3.641875 65.466875 4.03375 64.62125 4.4375 63.75 C8.61176976 51.22719073 7.72754439 34.17243386 2.25 22.3125 C-2.30957719 14.02445843 -8.53223774 7.21173975 -17.75 4.3125 C-30.89485153 3.04729139 -41.48968038 4.15897547 -50.21875 15.0703125 Z " fill="#7A8379" transform="translate(2034.75,296.6875)"/>
<path d="M0 0 C4.62 0 9.24 0 14 0 C14.0093457 2.08795898 14.01869141 4.17591797 14.02832031 6.32714844 C14.06226681 13.26827617 14.11791227 20.20911211 14.18390274 27.15000534 C14.22321373 31.35343614 14.25548165 35.55666258 14.27099609 39.76025391 C14.28627175 43.82595769 14.32090666 47.89109903 14.36830902 51.9565506 C14.38301146 53.49842659 14.39103453 55.04038294 14.39188385 56.5823288 C14.40340945 67.02634126 14.79505472 77.87715663 21.375 86.5625 C26.39029105 91.21955597 31.13178786 92.5638184 37.875 92.5 C38.58245361 92.49355469 39.28990723 92.48710937 40.01879883 92.48046875 C45.8878732 92.27479744 49.90964589 91.26684147 54 87 C62.19982212 77.21661435 62.46009485 65.32300467 62.51171875 53.1484375 C62.52859672 51.63813854 62.54675106 50.12785335 62.56611633 48.61758423 C62.6132847 44.67547922 62.64330711 40.73343008 62.66955566 36.7911377 C62.69953021 32.75517749 62.74600171 28.71940928 62.79101562 24.68359375 C62.87667069 16.78914178 62.94265422 8.89470841 63 1 C67.29 1 71.58 1 76 1 C76.06810916 9.78922526 76.12300675 18.57827172 76.15543652 27.36770248 C76.17101078 31.45015108 76.1920959 35.53240785 76.22631836 39.61474609 C76.25920907 43.56348778 76.27691475 47.51204638 76.28463173 51.46091461 C76.29012248 52.95821255 76.30084251 54.45550188 76.31719017 55.95272064 C76.46509073 70.07586293 75.11150693 83.25032068 65.11328125 94.03515625 C54.88985457 103.49534086 44.48523976 104.61229811 31.02636719 104.13183594 C22.0788986 103.54971148 15.44161868 99.59584155 9.3125 93.25390625 C2.33978351 84.86921467 -0.13277789 73.6917286 -0.11352539 63.0065918 C-0.11374443 61.98137169 -0.11374443 61.98137169 -0.1139679 60.93544006 C-0.11327462 58.68999999 -0.10550974 56.44464423 -0.09765625 54.19921875 C-0.09578999 52.63694809 -0.09436707 51.07467685 -0.09336853 49.5124054 C-0.08955972 45.41069916 -0.07974346 41.30902861 -0.06866455 37.20733643 C-0.0584152 33.01778649 -0.05386337 28.82823075 -0.04882812 24.63867188 C-0.03811967 16.42576309 -0.02053617 8.2128901 0 0 Z " fill="#7B837A" transform="translate(1022,291)"/>
<path d="M0 0 C29.66233766 0 29.66233766 0 39 3 C39.85464844 3.26683594 40.70929688 3.53367187 41.58984375 3.80859375 C48.28020845 6.31330599 52.98178592 10.95682196 56.16796875 17.33984375 C58.68451195 25.38569315 57.69866634 34.83869116 54.4375 42.52734375 C49.75036511 50.58972523 43.04972277 53.87504597 34.30859375 56.30859375 C22.59199088 58.75704559 12.45643887 58 0 58 C0 38.86 0 19.72 0 0 Z " fill="#FDFDFD" transform="translate(1040,83)"/>
<path d="M0 0 C2.35902354 2.35902354 2.66042016 3.77469514 3.53125 6.97265625 C3.83877197 8.07327393 4.14629395 9.1738916 4.46313477 10.30786133 C4.97638306 12.16640747 4.97638306 12.16640747 5.5 14.0625 C10.69935535 32.57908177 16.59391445 50.88160931 22.44144535 69.20094872 C23.04203162 71.08361838 23.64132247 72.96670115 24.24058533 74.84979248 C24.98628898 77.19239011 25.73453695 79.5341797 26.48561096 81.87506104 C26.9830204 83.43797882 26.9830204 83.43797882 27.49047852 85.0324707 C27.78310074 85.94712601 28.07572296 86.86178131 28.37721252 87.80415344 C29 90 29 90 29 92 C10.52 92 -7.96 92 -27 92 C-24.78461538 80.92307692 -24.78461538 80.92307692 -23.25 77.1875 C-21.1906805 71.79039871 -19.61618544 66.30803953 -18.0625 60.75 C-16.36695093 54.69310723 -14.61634543 48.69534203 -12.5625 42.75 C-9.53985421 33.91683124 -7.12575774 24.91631321 -4.6484375 15.91796875 C-3.17763656 10.58740321 -1.61617393 5.28816221 0 0 Z " fill="#FCFCFC" transform="translate(797,79)"/>
<path d="M0 0 C25.41 0 50.82 0 77 0 C77 3.96 77 7.92 77 12 C66.44 12 55.88 12 45 12 C45 42.03 45 72.06 45 103 C40.38 103 35.76 103 31 103 C31 72.97 31 42.94 31 12 C20.77 12 10.54 12 0 12 C0 8.04 0 4.08 0 0 Z " fill="#7F877E" transform="translate(1691,291)"/>
<path d="M0 0 C18.15 0 36.3 0 55 0 C55 3.3 55 6.6 55 10 C41.14 10 27.28 10 13 10 C13 21.22 13 32.44 13 44 C25.87 44 38.74 44 52 44 C52 47.63 52 51.26 52 55 C39.13 55 26.26 55 13 55 C13 70.18 13 85.36 13 101 C8.71 101 4.42 101 0 101 C0 67.67 0 34.34 0 0 Z " fill="#798278" transform="translate(694,292)"/>
<path d="M0 0 C4.29 0 8.58 0 13 0 C13 33.33 13 66.66 13 101 C8.71 101 4.42 101 0 101 C0 67.67 0 34.34 0 0 Z " fill="#788177" transform="translate(1855,292)"/>
<path d="M0 0 C2.41790059 2.41790059 2.55119361 3.77267256 3.26953125 7.0859375 C5.17976588 15.1332066 7.93849042 22.83540504 10.6875 30.625 C11.45423645 32.80556475 12.21939975 34.98664169 12.98091125 37.16903687 C13.45065965 38.51458785 13.92350646 39.85906216 14.39982605 41.20230103 C16 45.7759214 16 45.7759214 16 48 C5.77 48 -4.46 48 -15 48 C-11.63843009 36.79476697 -11.63843009 36.79476697 -10.09765625 32.51953125 C-9.76636719 31.58955322 -9.43507813 30.6595752 -9.09375 29.70141602 C-8.7534375 28.74807373 -8.413125 27.79473145 -8.0625 26.8125 C-4.9362212 17.95972014 -2.19238661 9.13013636 0 0 Z " fill="#FBFBFB" transform="translate(1579,303)"/>
<path d="M0 0 C3 1 3 1 3.94921875 2.71484375 C5.90517058 8.60339713 6.34860127 13.8155552 6 20 C5.67 20 5.34 20 5 20 C4.89042969 19.20335937 4.78085937 18.40671875 4.66796875 17.5859375 C3.80882131 11.84431803 2.94713785 7.09051083 0 2 C0 1.34 0 0.68 0 0 Z " fill="#9EA49D" transform="translate(516,273)"/>
</svg>
