<svg xmlns="http://www.w3.org/2000/svg" height="800" width="1200" viewBox="-14.765625 -6.1172 127.96875 36.7032"><path d="M44.7525 11.8362c3.11-1.035 3.6737-3.645 3.6675-5.7725-.0063-3.2525-2.3-6.0612-9.0888-6.0612L26.6575 0v24.4175h12.6387c6.8313 0 9.3438-3.5063 9.3438-7.0188 0-4.2537-3.8875-5.5625-3.8875-5.5625m-12.08-6.5237h8.5325l.03.0062c.9625.17 1.6637.9888 1.6637 1.9488 0 .9837-.7512 1.91-1.7437 2.045l-8.4788.0137zm8.1212 13.4137h-8.1212V14.64h8.32l.0187.0025c1.035.1175 1.82.9787 1.82 2 0 1.1162-.9287 2.0687-2.0375 2.0837M77.0175.005h21.415L98.42 5.3325H82.9687l.015 3.9362h13.93v5.3563h-13.93v4.2587h15.4538l-.0038 5.585H77.0175M64.5612.035h-12.95v24.4262h5.9463v-9.8837l6.55-.0063c1.875.0288 3.3337 1.5638 3.3337 3.4588v6.4087l5.82-.0025-.01-7.8812c0-3.6525-3.5287-4.7325-3.5287-4.7325S73.33 10.745 73.33 6.4275c0-5.2838-4.5388-6.3925-8.7688-6.3925m3.2463 7.5775c-.1075.8037-.91 1.675-1.9125 1.675l-8.3588.0025V5.38h8.3613c1 0 1.7825.7337 1.91 1.7m-45.005 11.4788c-.0837.0012-8.1287.1562-10.9062-.1138-4.47-.4375-6.055-3.7512-6.055-6.4537 0-3.3738 2.2987-5.8538 5.8587-6.3188 1.695-.2225 10.955-.1175 11.0538-.1175l.1937.0038.02-5.555h-.1962l-10.4825.02c-1.1675.0712-3.1025.1887-5.085.9987-1.9013.8725-3.5588 2.2125-4.795 3.8788C.8338 7.0213 0 9.54 0 12.18c0 .8325.0663 1.6563.2 2.4475.7538 3.7025 3.1825 6.7688 6.6638 8.4163 1.175.5175 2.9887 1.1362 6.6437 1.3425l1.97.0412 7.3063.0063h.1937l.02-5.8775" fill="#006a4d"/></svg>