<?xml version="1.0" encoding="UTF-8"?>
<svg version="1.1" xmlns="http://www.w3.org/2000/svg" width="228" height="221">
<path d="M0 0 C75.24 0 150.48 0 228 0 C228 72.93 228 145.86 228 221 C152.76 221 77.52 221 0 221 C0 148.07 0 75.14 0 0 Z " fill="#F05A29" transform="translate(0,0)"/>
<path d="M0 0 C45.79310345 0 45.79310345 0 53.875 7.8125 C57.3467981 14.56321853 57.27706682 21.10007001 57.22705078 28.53491211 C57.22734283 29.67710205 57.22763489 30.81929199 57.22793579 31.99609375 C57.22654684 35.75658875 57.21100585 39.51688353 57.1953125 43.27734375 C57.19158083 45.89050691 57.18873459 48.50367148 57.18673706 51.11683655 C57.18053516 57.28255759 57.16414192 63.44820723 57.14403808 69.61389691 C57.1216388 76.63689014 57.11067555 83.65988689 57.10064721 90.68290699 C57.07977445 105.12197997 57.04311443 119.56097579 57 134 C66.9 134 76.8 134 87 134 C87 115.85 87 97.7 87 79 C104.49 79 121.98 79 140 79 C140.3125 97.6875 140.3125 97.6875 140.38793945 103.4987793 C140.66486059 118.73429482 142.14069265 131.65379666 152.3125 143.75 C165.0033834 154.37492564 176.84143085 156.03604896 192.94140625 156.31640625 C193.94968979 156.33718735 194.95797333 156.35796844 195.99681091 156.37937927 C199.18531149 156.44422851 202.37388717 156.50345608 205.5625 156.5625 C207.73763766 156.60574684 209.912768 156.64936299 212.08789062 156.69335938 C217.39185162 156.80053053 222.69587767 156.90008267 228 157 C228 163.6 228 170.2 228 177 C152.76 177 77.52 177 0 177 C0 118.59 0 60.18 0 0 Z " fill="#F05A28" transform="translate(0,44)"/>
<path d="M0 0 C6.455899 -0.06930786 12.91047887 -0.12890978 19.36645508 -0.16479492 C21.55725507 -0.17977282 23.74802565 -0.20016228 25.9387207 -0.22631836 C60.97462335 -0.63380548 60.97462335 -0.63380548 74.75 12.0625 C84.50229757 22.4534436 87.36980122 34.87050977 87.1953125 48.7265625 C87.19329834 49.50281982 87.19128418 50.27907715 87.18920898 51.07885742 C87.17889036 53.92763333 87.15097018 56.77632378 87.125 59.625 C87.08375 66.01875 87.0425 72.4125 87 79 C104.49 79 121.98 79 140 79 C140 60.85 140 42.7 140 24 C149.9 24 159.8 24 170 24 C170.02187378 29.20027954 170.02187378 29.20027954 170.04418945 34.50561523 C170.09457495 45.97291534 170.16102829 57.44009122 170.23571491 68.90725613 C170.28059704 75.8583213 170.32002894 82.8093361 170.34643555 89.76049805 C170.37194521 96.47145853 170.41290064 103.18216394 170.46318626 109.89299202 C170.47984336 112.45053366 170.49136481 115.00811419 170.49761391 117.56570244 C170.50726718 121.15398485 170.53534289 124.74169349 170.56762695 128.32983398 C170.56619186 129.38216217 170.56475677 130.43449036 170.5632782 131.51870728 C170.65524818 138.76893358 171.10765746 146.03154318 176.375 151.4375 C183.97503794 155.96133211 192.02292459 156.1230385 200.65625 156.31640625 C201.44398804 156.33718735 202.23172607 156.35796844 203.04333496 156.37937927 C205.52881206 156.44410974 208.01438333 156.50339906 210.5 156.5625 C212.19792592 156.60575823 213.89584275 156.64937468 215.59375 156.69335938 C219.72907217 156.80037699 223.86447805 156.90001567 228 157 C228 164.92 228 172.84 228 181 C221.68674196 181.04621336 215.37408418 181.08594748 209.06079102 181.10986328 C206.91851804 181.11984606 204.77625843 181.13343702 202.6340332 181.15087891 C184.30175965 181.29627133 169.48151263 181.24250834 153.6875 170.8125 C143.27630972 159.91706831 139.80972964 147.57126421 139.90234375 132.8828125 C139.90335083 132.12218506 139.90435791 131.36155762 139.90539551 130.57788086 C139.91059307 127.76023838 139.92455413 124.94261753 139.9375 122.125 C139.958125 115.81375 139.97875 109.5025 140 103 C122.51 103 105.02 103 87 103 C87 121.15 87 139.3 87 158 C77.1 158 67.2 158 57 158 C56.98541748 154.49761719 56.97083496 150.99523437 56.95581055 147.38671875 C56.90544663 135.80765314 56.83899751 124.22871056 56.76428509 112.64978027 C56.71938415 105.63030502 56.6799565 98.61087985 56.65356445 91.59130859 C56.62807342 84.81551924 56.5871304 78.03996261 56.53681374 71.26431274 C56.52014431 68.6808246 56.50863053 66.09729781 56.50238609 63.51376343 C56.49274626 59.89175057 56.46468653 56.27030933 56.43237305 52.6484375 C56.43380814 51.5831633 56.43524323 50.5178891 56.4367218 49.42033386 C56.34802177 42.37808595 55.63095647 36.47662105 51.25 30.6875 C43.90072956 25.17554717 35.47377791 24.88552251 26.66015625 24.68359375 C25.89319931 24.66281265 25.12624237 24.64203156 24.33604431 24.62062073 C21.91161128 24.55579168 19.48707987 24.49655379 17.0625 24.4375 C15.40819338 24.39425121 13.75389633 24.35063501 12.09960938 24.30664062 C8.0665051 24.1994955 4.0333152 24.09992926 0 24 C0 16.08 0 8.16 0 0 Z " fill="#FEFDFC" transform="translate(0,20)"/>
<path d="M0 0 C0.33 0 0.66 0 1 0 C1.02187378 0.86612915 1.02187378 0.86612915 1.04418945 1.74975586 C1.69710721 25.0448464 3.5780827 47.58418949 20.125 65.6875 C36.3400598 80.7469208 55.92043403 83.09080854 77 85 C77 85.33 77 85.66 77 86 C51.59 86 26.18 86 0 86 C0 57.62 0 29.24 0 0 Z " fill="#FEFCFB" transform="translate(0,135)"/>
<path d="M0 0 C30.69 0 61.38 0 93 0 C93 23.43 93 46.86 93 71 C92.67 71 92.34 71 92 71 C91.94054199 70.41210693 91.88108398 69.82421387 91.81982422 69.21850586 C89.56939482 47.96790416 84.78368269 30.50944235 67.80859375 16.06640625 C54.52778372 6.29512877 37.60506968 2.20750224 21.2890625 1.68359375 C20.04511719 1.64169922 18.80117187 1.59980469 17.51953125 1.55664062 C16.23433594 1.51732422 14.94914063 1.47800781 13.625 1.4375 C12.31660156 1.39431641 11.00820312 1.35113281 9.66015625 1.30664062 C6.44020203 1.20087571 3.22017469 1.09878421 0 1 C0 0.67 0 0.34 0 0 Z " fill="#FEFBFB" transform="translate(135,0)"/>
</svg>
