<?xml version="1.0" encoding="UTF-8"?>
<svg version="1.1" xmlns="http://www.w3.org/2000/svg" width="382" height="100">
<path d="M0 0 C1.40218781 0.1792804 1.40218781 0.1792804 2.83270264 0.36218262 C9.06704273 1.16694333 15.28704074 2.0440733 21.5 3 C22.45406738 3.14550293 23.40813477 3.29100586 24.39111328 3.44091797 C27.27603802 3.89355849 30.15356376 4.37859255 33.03125 4.875 C33.90809448 5.01220459 34.78493896 5.14940918 35.68835449 5.29077148 C41.10024463 6.27368832 43.90602744 7.56897734 47.5 12 C47.83 12.33 48.16 12.66 48.5 13 C48.7734375 15.29296875 48.7734375 15.29296875 48.875 18.1875 C48.92398437 19.12980469 48.97296875 20.07210938 49.0234375 21.04296875 C48.32649379 24.98018058 46.28640609 27.27518179 43.5 30 C40.37915039 32.03540039 40.37915039 32.03540039 36.84765625 33.84765625 C35.88267212 34.34794342 35.88267212 34.34794342 34.89819336 34.8583374 C32.79393974 35.94218884 30.67946144 37.00370744 28.5625 38.0625 C27.83070526 38.43305511 27.09891052 38.80361023 26.34494019 39.18539429 C-16.77858156 61.01223841 -61.94440417 76.27971368 -109.20898438 86.29980469 C-111.94114377 86.88109795 -114.66590205 87.48679542 -117.390625 88.1015625 C-182.80753875 102.17638922 -269.37093194 62.10648436 -325.06640625 30.74609375 C-328.75377829 28.10041911 -331.07504565 25.42663247 -332.375 21.0625 C-332.57228243 16.22908055 -331.47896633 13.25223313 -328.50585938 9.44921875 C-324.50079556 6.18583342 -321.04791405 5.65998451 -316.03125 4.875 C-315.10509888 4.71523682 -314.17894775 4.55547363 -313.22473145 4.39086914 C-310.32008254 3.90032583 -307.41208541 3.44411639 -304.5 3 C-303.61296387 2.86352051 -302.72592773 2.72704102 -301.81201172 2.58642578 C-295.55194236 1.63998659 -289.27990953 0.80293429 -283 0 C-282.02121887 -0.12628784 -281.04243774 -0.25257568 -280.03399658 -0.38269043 C-186.97636487 -12.31646227 -93.02847121 -12.00305617 0 0 Z " fill="#0158A4" transform="translate(332.5,10)"/>
<path d="M0 0 C3.25 -0.0625 3.25 -0.0625 7 1 C10.88629663 6.80587122 12.43254939 14.40005989 14.25 21.0625 C14.518125 22.02349609 14.78625 22.98449219 15.0625 23.97460938 C15.71448705 26.31477718 16.36018798 28.6564801 17 31 C17.0093457 30.26885986 17.01869141 29.53771973 17.02832031 28.78442383 C17.08212664 25.45977282 17.16575504 22.13651322 17.25 18.8125 C17.26417969 17.66201172 17.27835938 16.51152344 17.29296875 15.32617188 C17.32519531 14.21435547 17.35742188 13.10253906 17.390625 11.95703125 C17.41157227 10.93585205 17.43251953 9.91467285 17.45410156 8.86254883 C18.13838053 5.27436864 19.43655717 3.56633122 22 1 C27.99893513 -0.21551725 33.99073549 -0.11625806 39.375 2.875 C41.90884995 7.74778837 41.87280067 12.90350334 40.38671875 18.17578125 C40.25910156 18.77777344 40.13148438 19.37976563 40 20 C40.474375 20.70125 40.94875 21.4025 41.4375 22.125 C43.73170256 26.34633271 43.71896535 30.29193658 43 35 C41.20353146 37.93423195 40.0558929 39.47205355 37 41 C34.51078799 41.07210927 32.05045856 41.09292659 29.5625 41.0625 C28.88123047 41.05798828 28.19996094 41.05347656 27.49804688 41.04882812 C25.66533538 41.03626301 23.83266232 41.01838792 22 41 C21.01 41 20.02 41 19 41 C15.66666667 41 12.33333333 41 9 41 C8.505 37.535 8.505 37.535 8 34 C3.05 34.495 3.05 34.495 -2 35 C-2.66 36.98 -3.32 38.96 -4 41 C-8.43737712 41.08690253 -12.87453634 41.14035926 -17.3125 41.1875 C-19.20645508 41.22520508 -19.20645508 41.22520508 -21.13867188 41.26367188 C-22.95141602 41.27817383 -22.95141602 41.27817383 -24.80078125 41.29296875 C-26.47394409 41.31653442 -26.47394409 41.31653442 -28.1809082 41.34057617 C-31 41 -31 41 -32.86914062 40.00585938 C-34.71699671 36.72822864 -34.36434044 33.27245533 -34.29296875 29.61328125 C-34.28872391 28.79627243 -34.28447906 27.97926361 -34.28010559 27.13749695 C-34.26331691 24.52882893 -34.22566519 21.92093438 -34.1875 19.3125 C-34.17245337 17.54363095 -34.15876492 15.77474979 -34.14648438 14.00585938 C-34.11341286 9.67027504 -34.0616299 5.33526864 -34 1 C-31.03 1 -28.06 1 -25 1 C-25 11.23 -25 21.46 -25 32 C-18.565 31.505 -18.565 31.505 -12 31 C-11.38511719 29.09734375 -10.77023438 27.1946875 -10.13671875 25.234375 C-9.53155306 23.38409828 -8.92633247 21.53383904 -8.31958008 19.68408203 C-7.69540196 17.77417896 -7.07909401 15.86170965 -6.46289062 13.94921875 C-6.06650391 12.74394531 -5.67011719 11.53867187 -5.26171875 10.296875 C-4.71970825 8.63156738 -4.71970825 8.63156738 -4.16674805 6.93261719 C-3.07341975 4.18454029 -1.89884291 2.24517275 0 0 Z " fill="#F6F9FB" transform="translate(110,19)"/>
<path d="M0 0 C6.17094418 3.34413442 10.13091821 7.21747122 12.296875 13.9765625 C13.32420156 19.94616278 12.57556987 24.95927818 9.56640625 30.22265625 C6.38341152 34.62008589 2.43380829 37.24654656 -2.703125 38.9765625 C-9.8208022 39.87939471 -14.96527854 39.33732581 -20.703125 34.9765625 C-25.53962639 30.26903448 -27.97426448 25.42612824 -28.140625 18.6640625 C-28.01717436 12.93132344 -26.55577152 9.21351292 -22.703125 4.9765625 C-16.03765428 -0.87213282 -8.51066228 -3.22224497 0 0 Z " fill="#F6F9FB" transform="translate(202.703125,21.0234375)"/>
<path d="M0 0 C4.02467284 2.86472346 6.90246276 6.71069187 8.7890625 11.2734375 C9.64479599 18.53050203 9.11115856 25.03996996 4.46484375 30.9609375 C-0.21484442 36.07051828 -4.74304852 37.34283727 -11.5859375 37.7109375 C-17.29974362 37.6021031 -20.91624434 35.9792602 -25.2109375 32.2734375 C-29.35300799 27.9133633 -31.2777701 23.94965739 -31.5859375 17.9609375 C-31.42183138 12.14965031 -29.53407717 7.75622421 -25.5625 3.51171875 C-17.90831234 -3.39041991 -9.23583187 -5.18825615 0 0 Z " fill="#F8FAFC" transform="translate(298.2109375,22.7265625)"/>
<path d="M0 0 C9.71395114 0.10367077 9.71395114 0.10367077 14.09765625 2.5390625 C16.6315062 7.41185087 16.59545692 12.56756584 15.109375 17.83984375 C14.98175781 18.44183594 14.85414063 19.04382813 14.72265625 19.6640625 C15.19703125 20.3653125 15.67140625 21.0665625 16.16015625 21.7890625 C18.45435881 26.01039521 18.4416216 29.95599908 17.72265625 34.6640625 C15.92618771 37.59829445 14.77854915 39.13611605 11.72265625 40.6640625 C9.25086751 40.78852025 6.81954456 40.8492217 4.34765625 40.8515625 C3.33832031 40.86993164 3.33832031 40.86993164 2.30859375 40.88867188 C-4.54040048 40.90889528 -4.54040048 40.90889528 -7.27734375 38.6640625 C-8.97504126 32.47706769 -8.27968679 26.00932486 -8.08984375 19.6640625 C-8.07115234 18.39304687 -8.05246094 17.12203125 -8.03320312 15.8125 C-7.9780957 13.97558594 -7.9780957 13.97558594 -7.921875 12.1015625 C-7.89456299 10.98652344 -7.86725098 9.87148438 -7.83911133 8.72265625 C-6.92912836 3.76817269 -4.98848831 1.01077832 0 0 Z " fill="#F5F8FB" transform="translate(135.27734375,19.3359375)"/>
<path d="M0 0 C4.57032517 1.54316265 5.34363968 3.18728029 7.43554688 7.35351562 C7.80615234 8.15595703 8.17675781 8.95839844 8.55859375 9.78515625 C8.95626953 10.59146484 9.35394531 11.39777344 9.76367188 12.22851562 C10.7394281 14.21529637 11.68342509 16.21761873 12.62109375 18.22265625 C12.95109375 12.28265625 13.28109375 6.34265625 13.62109375 0.22265625 C16.59109375 0.22265625 19.56109375 0.22265625 22.62109375 0.22265625 C22.72005201 5.41872611 22.79260368 10.61424623 22.84082031 15.81103516 C22.86092225 17.57838497 22.88820847 19.34566838 22.92285156 21.11279297 C22.97143384 23.6547891 22.99407601 26.19590521 23.01171875 28.73828125 C23.03236389 29.52696594 23.05300903 30.31565063 23.07427979 31.12823486 C23.07571884 34.65515524 22.87360638 36.84021413 20.90917969 39.81542969 C18.62109375 41.22265625 18.62109375 41.22265625 16.03613281 41.23413086 C13.02210354 39.9717852 12.41995146 38.93753718 10.98046875 36.0390625 C10.54992187 35.19408203 10.119375 34.34910156 9.67578125 33.47851562 C9.02996094 32.14530273 9.02996094 32.14530273 8.37109375 30.78515625 C7.70207031 29.45774414 7.70207031 29.45774414 7.01953125 28.10351562 C5.87040599 25.81745279 4.74125349 23.5230048 3.62109375 21.22265625 C3.29109375 20.56265625 2.96109375 19.90265625 2.62109375 19.22265625 C2.29109375 26.15265625 1.96109375 33.08265625 1.62109375 40.22265625 C-1.01890625 40.22265625 -3.65890625 40.22265625 -6.37890625 40.22265625 C-6.4530339 35.00825112 -6.50749729 29.79415232 -6.54370117 24.5793457 C-6.55879266 22.80520282 -6.57926816 21.03109727 -6.60522461 19.25708008 C-6.64159266 16.70775138 -6.65862863 14.15891566 -6.671875 11.609375 C-6.68735886 10.81552902 -6.70284271 10.02168304 -6.71879578 9.20378113 C-6.72046517 3.74794503 -6.72046517 3.74794503 -5.07177734 1.21240234 C-3.37890625 0.22265625 -3.37890625 0.22265625 0 0 Z " fill="#F8FAFC" transform="translate(222.37890625,19.77734375)"/>
<path d="M0 0 C0 2.97 0 5.94 0 9 C-0.68707031 9.09796875 -1.37414062 9.1959375 -2.08203125 9.296875 C-2.98308594 9.44640625 -3.88414062 9.5959375 -4.8125 9.75 C-5.70582031 9.88921875 -6.59914062 10.0284375 -7.51953125 10.171875 C-10.5781255 11.19301198 -11.4243946 12.22393334 -13 15 C-14.25091531 18.98234432 -14.42965661 22.05884743 -12.6875 25.875 C-10.33807578 29.03515802 -10.33807578 29.03515802 -6.8359375 30.4140625 C-6.02382812 30.48367187 -5.21171875 30.55328125 -4.375 30.625 C-2.209375 30.810625 -2.209375 30.810625 0 31 C0 33.97 0 36.94 0 40 C-7.087769 40.59896639 -11.35227914 40.1872437 -17.08203125 35.81640625 C-22.19305375 30.97602852 -23.23920135 26.32172762 -23.5 19.375 C-23.25252345 12.231177 -21.24070042 9.14327866 -16.125 4.25 C-10.77743984 0.39975668 -6.52518733 -0.26100749 0 0 Z " fill="#F4F8FB" transform="translate(177,20)"/>
<path d="M0 0 C0 2.97 0 5.94 0 9 C-1.2375 9.12375 -2.475 9.2475 -3.75 9.375 C-8.15811372 9.91198841 -8.15811372 9.91198841 -12 12 C-14.04124411 15.6742394 -14.50901181 18.8430702 -14 23 C-12.34976991 26.06471302 -10.943924 28.30778907 -8.125 30.375 C-5.36226686 31.18756857 -2.86228888 31.13010404 0 31 C0 33.97 0 36.94 0 40 C-6.48325156 40.34122377 -11.34999437 39.84448715 -16.69921875 35.67578125 C-21.78975621 30.979668 -23.06924912 26.47068947 -23.4375 19.625 C-23.3286656 13.91119388 -21.7058227 10.29469316 -18 6 C-12.29690231 0.58205719 -7.59207726 -0.25735855 0 0 Z " fill="#F8FAFC" transform="translate(269,20)"/>
<path d="M0 0 C3.50313626 1.4012545 4.74726213 2.62931779 6.875 5.75 C8.25544544 9.7379535 8.10685711 11.94152394 7 16 C4.84746644 19.34013828 2.89672344 21.91757682 -1 23 C-6.03829462 22.92002707 -8.02815058 22.80642825 -11.9375 19.5625 C-14.81220549 15.99089621 -15.39318165 13.74543213 -15.359375 9.10546875 C-14.72418186 5.38406547 -12.66020984 3.59687151 -10 1 C-6.801457 -0.5992715 -3.47898371 -0.36127908 0 0 Z " fill="#075CA6" transform="translate(291,29)"/>
<path d="M0 0 C3.0097291 1.77847628 5.41086334 3.82172667 7 7 C7.35032356 12.34243433 7.4561069 15.64786539 4 20 C-0.23552856 22.82368571 -4.02477314 22.66653757 -9 22 C-11.93423195 20.20353146 -13.47205355 19.0558929 -15 16 C-15.66917765 11.77201394 -16.10622288 7.72004167 -13.71875 4.0078125 C-9.34185613 -0.15023668 -5.8970845 -1.02964967 0 0 Z " fill="#045AA5" transform="translate(199,29)"/>
<path d="M0 0 C-0.165 0.969375 -0.33 1.93875 -0.5 2.9375 C-1.43597839 9.63856267 -1.60943395 15.63950476 1 22 C-3.22439042 23.0138537 -5.30021952 23.34989024 -9.25 21.375 C-12.95719868 18.17332841 -14.76135055 15.90919558 -15.375 11 C-14.83989435 6.7191548 -13.21247202 4.30228476 -10.3125 1.1875 C-6.82364143 -0.60407602 -3.89238853 -0.19461943 0 0 Z " fill="#095EA7" transform="translate(269,29)"/>
<path d="M0 0 C2.875 -0.125 2.875 -0.125 6 0 C8 2 8 2 8.1875 4.5625 C8 7 8 7 7 8 C4.66702567 8.04092937 2.33294775 8.04241723 0 8 C0 5.36 0 2.72 0 0 Z " fill="#0A5FA7" transform="translate(137,43)"/>
<path d="M0 0 C1.65 0 3.3 0 5 0 C5.38218767 1.65614657 5.71395102 3.32457024 6 5 C5 6 5 6 2.4375 6.0625 C1.2309375 6.0315625 1.2309375 6.0315625 0 6 C0 4.02 0 2.04 0 0 Z " fill="#1063AA" transform="translate(137,29)"/>
<path d="M0 0 C0.66 0 1.32 0 2 0 C2.33 2.64 2.66 5.28 3 8 C1.35 8 -0.3 8 -2 8 C-1.34 5.36 -0.68 2.72 0 0 Z " fill="#206DAF" transform="translate(112,36)"/>
</svg>
